PathFileType	3	(X/Y/Z)	D:\Jess\Healthy\Labelled\HA03\20250325\SRRun01.trc
DataRate	CameraRate	NumFrames	NumMarkers	Units	OrigDataRate	OrigDataStartFrame	OrigNumFrames
250.0	250.0	4	33	mm	250.0	35625	2501
Frame#	Time	C7			T10			CLAV			LSHO			RSHO			LASIS			RASIS			LPSIS			RPSIS			LILCR			RILCR			LGTR			LTHI			LLTHI			LLEP			LPSH			LLSH			LDSH			LLMAL			LTOE			L5TH			LHEE			RGTR			RTHI			RLTHI			RLEP			RPSH			RLSH			RDSH			RLMAL			RTOE			R5TH			RHEE			
		X1	Y1	Z1	X2	Y2	Z2	X3	Y3	Z3	X4	Y4	Z4	X5	Y5	Z5	X6	Y6	Z6	X7	Y7	Z7	X8	Y8	Z8	X9	Y9	Z9	X10	Y10	Z10	X11	Y11	Z11	X12	Y12	Z12	X13	Y13	Z13	X14	Y14	Z14	X15	Y15	Z15	X16	Y16	Z16	X17	Y17	Z17	X18	Y18	Z18	X19	Y19	Z19	X20	Y20	Z20	X21	Y21	Z21	X22	Y22	Z22	X23	Y23	Z23	X24	Y24	Z24	X25	Y25	Z25	X26	Y26	Z26	X27	Y27	Z27	X28	Y28	Z28	X29	Y29	Z29	X30	Y30	Z30	X31	Y31	Z31	X32	Y32	Z32	X33	Y33	Z33	

626	142.496	840.8708164245552	1487.721512858207	-272.3403194699004	777.4727801190884	1236.405109218182	-272.2280933898168	965.6604379806804	1404.566558966374	-308.7745546552274	861.8001848748358	1485.08960423141	-435.9774829050418	934.073275493383	1461.153413229181	-142.0200742367289	898.6586037193841	1042.569259694652	-378.6800604310637	911.1809675920783	1031.871149149233	-199.2388771075475	745.6540451646326	1098.852281150029	-306.8024158761179	750.8104055840327	1099.798398123324	-259.0954822830153	843.4463155726141	1086.235488228705	-427.1679688591109	861.6241273765867	1079.307764722742	-147.8182973776007	890.6363485242416	977.3339777553034	-439.0958814213864	996.0414464633759	795.6062854744472	-385.7646804304381	942.1088533587191	707.7380520598866	-447.0712356688866	974.6636646425435	561.3981738534875	-421.9369236143354	1040.112938403821	456.1468769703749	-375.834100487771	984.4340395466245	329.3828129489208	-428.5030348051349	1051.246227820058	260.6516272741923	-375.2686932645892	1022.614788990925	139.4794646528927	-405.3559594159083	1177.946166238175	130.5671409290434	-371.9829053745237	1154.462448894917	95.54967270651785	-408.8853723474421	956.9791402567885	108.9201876706154	-357.4699842386991	825.6335737190865	984.5851772649366	-116.8102257093575	852.2819090780378	738.1098480938236	-219.5090575133733	760.6130526374482	661.6454284611984	-159.95398570968	699.488900294819	566.0471360342268	-180.3129680460531	638.0894461041715	452.2475095066374	-231.2526433046827	522.5034908021945	414.678189002358	-163.1175713644679	472.7529715034713	298.3953351047925	-216.1068659618777	385.1673099170442	279.0545570445411	-182.197170367499	403.3019709786056	118.5011986862617	-213.5749662617907	359.5352033569774	144.2426933632113	-173.4176254473788	333.6019728129958	332.7746000798554	-223.1328153036512	
627	142.5	841.0232982185136	1486.998540197649	-273.2169687240329	777.2574734361485	1235.671097638459	-272.6619480375408	965.8209829991754	1403.611766263057	-309.257357269505	862.1226396919946	1483.751182461579	-436.9129097148763	934.2726363163338	1460.522635914525	-142.6249613596387	899.029436610232	1041.950289945762	-378.5567326830862	911.3012990041402	1031.671860101759	-199.0767089141335	745.6061865020108	1097.661761931008	-307.0088692886815	750.7297933625516	1098.658135591887	-259.2837854315697	843.7567648172209	1085.19084007737	-427.0722043698511	861.3370431443103	1078.931122146484	-147.6630270661999	891.3288495006191	976.3465004340879	-439.0246323049862	994.0127774282199	792.4760739653285	-385.5803919924973	940.1110260727349	705.4920948578008	-448.1408081265753	972.5403689059586	559.4653849359865	-421.9373560794262	1039.076216016706	455.0719161936335	-375.6046617129668	985.2116708019796	327.6454413042449	-428.4724299886271	1053.152515822902	259.7588032783775	-375.4248875280609	1026.34278020509	137.9274754664629	-405.538646226148	1181.820580945814	130.9602390747667	-372.1078394422364	1158.770379239007	95.36582782366962	-408.7524935274593	961.1346869624721	106.5335230665417	-357.5696903690292	826.1025180210064	983.9252272195762	-116.8064563952588	855.2084775691151	737.5204042228655	-220.9649653615959	764.5442535708772	659.872529421481	-161.2389788858386	703.4517580329547	564.0166459465678	-181.2282911262784	639.4582327596464	451.3399068302334	-232.0382825678387	523.3641115641343	416.3353432686675	-163.1085001052295	470.4791638662863	301.6513613517549	-215.951929010809	382.6044823591417	284.1962629940507	-181.4426924586637	397.8304723169751	123.517252819385	-212.940463704478	354.7861936816732	149.9573074090259	-172.4332755263995	331.6912565667446	338.9333780065436	-221.9840971280523	
628	142.504	841.1598455828995	1486.115518781917	-274.1169086386598	776.9764069208832	1234.785298186224	-273.0870573185625	965.9563201203046	1402.448822048192	-309.7153042054902	862.4682450551551	1482.22975639677	-437.8602958362816	934.4258557237954	1459.713656203332	-143.2319768276341	899.3540572263101	1041.164108652485	-378.4428671441882	911.3681295070063	1031.303003199729	-198.8961766043842	745.4926618603487	1096.243834291529	-307.2060287418091	750.5848475066133	1097.283845941475	-259.4641234806713	844.0135697854361	1083.994756546729	-426.9622574740982	860.9709479494892	1078.353781966118	-147.4974221567621	891.9209037435053	975.1752086526934	-438.9620632623988	991.9794853998147	789.3578326520893	-385.4268570571385	938.2176112085687	703.2049907225204	-449.1892472586035	970.5863951766843	557.5307633427859	-421.9511022873941	1038.050784260944	453.8747985698177	-375.4263717133279	985.6766276946979	325.9133318994571	-428.4093857233585	1054.593975292737	258.7435078358384	-375.569146660632	1029.293753218646	136.3585276855931	-405.6571544017111	1184.877319310141	130.9397172135697	-372.2331172742502	1162.155319175284	94.84743375933535	-408.6145543592538	964.4809923128662	104.3346792462279	-357.5453187727227	826.5275336239147	983.0172546958667	-116.8291268838888	858.3143474342959	736.7139195810255	-222.409211934543	768.6800560097232	657.8484962860308	-162.5677079899825	707.6764220640019	561.6960917339215	-182.1744296281913	641.0614178472247	450.2261559191761	-232.8360373390059	524.4794657956967	417.9003955515197	-163.1366311113375	468.443709914829	304.9344554794506	-215.7898234747623	380.2919257606819	289.4220026742699	-180.6853869259591	392.6260851117656	128.6673880043546	-212.2540889613921	350.3244192243189	155.8177687215994	-171.4022538705061	330.0235699127655	345.1564881110354	-220.8369754107156	
629	142.508	841.2772321522525	1485.066798475095	-275.0386526488486	776.6359578824116	1233.744962909376	-273.4973642724904	966.0645501784099	1401.080601181698	-310.1485131471009	862.834438823009	1480.525673329858	-438.8147605229944	934.5270421254361	1458.729381315866	-143.8430956892265	899.6299516835688	1040.209103331829	-378.3410929189725	911.3902031375559	1030.754651047059	-198.7008702774748	745.319396300816	1094.602766633419	-307.3845706377551	750.3837816610639	1095.677023094027	-259.6272306934678	844.2149825580402	1082.652663617103	-426.8383788228782	860.5388545513166	1077.564378512217	-147.3232540647133	892.3999689160504	973.8251283290255	-438.9093265424964	989.9887922533554	786.2913380519842	-385.3113748838161	936.4528886741051	700.8944406391597	-450.1798578543792	968.8092029216406	555.586808321271	-421.9785729908859	1037.047772550983	452.5378826356703	-375.3038054680655	985.8323360098839	324.1567716854624	-428.3126892727464	1055.573941471684	257.5707449856865	-375.6945056748624	1031.465077704313	134.7346405949644	-405.7047531180085	1187.124402418627	130.4704057712047	-372.3347550586154	1164.625773188562	93.96534232776065	-408.4597073229683	967.0039844351832	102.2901070965531	-357.3993138148207	826.9167239955975	981.8546435795049	-116.8746993267675	861.5672214567563	735.6902579368874	-223.8210299746571	772.9832861722065	655.58854156165	-163.9180064683293	712.1337740962963	559.1037710270555	-183.1374165890496	642.8920032379834	448.9189623648753	-233.6319901495589	525.8509813294281	419.3794944251811	-163.19616548107	466.6684364117808	308.2385861513401	-215.610012800094	378.2567305513348	294.7237938689045	-179.921833497512	387.6975255497347	133.9425338895734	-211.5052967790819	346.1511441646308	161.8178261475157	-170.3267645227034	328.6432690658772	351.4416712004768	-219.6973764157024	
